<svg xmlns="http://www.w3.org/2000/svg" xmlns:xlink="http://www.w3.org/1999/xlink" width="170" height="166" viewBox="0 0 170 166">
  <defs>
    <clipPath id="clip-path">
      <rect id="Rectangle_22" data-name="Rectangle 22" width="170" height="166" transform="translate(-3452 2243)" fill="#fff" stroke="#707070" stroke-width="1"/>
    </clipPath>
  </defs>
  <g id="Mask_Group_1" data-name="Mask Group 1" transform="translate(3452 -2243)" clip-path="url(#clip-path)">
    <g id="assets_chart" transform="translate(-3508.688 2189.813)">
      <path id="Path_35" data-name="Path 35" d="M203.619,187.713a80.183,80.183,0,0,0,17.8-33.474,78.329,78.329,0,0,0,.24-37.613l-16.789,3.747a62.3,62.3,0,0,1-.191,29.92A63.756,63.756,0,0,1,190.52,176.92Z" fill="#b1d3ff"/>
      <path id="Path_36" data-name="Path 36" d="M130.44,215.661a87.206,87.206,0,0,0,38.726-4.694,84.5,84.5,0,0,0,32.376-21.008l-12.675-11.253a67.2,67.2,0,0,1-25.754,16.712,69.369,69.369,0,0,1-30.805,3.734Z" fill="#155ab6"/>
      <path id="Path_37" data-name="Path 37" d="M162.061,213.194a84.611,84.611,0,0,0,42.549-26.637L191.307,176A67.313,67.313,0,0,1,157.46,197.19Z" fill="#00c4df"/>
      <path id="Path_38" data-name="Path 38" d="M226.345,116.38a82.254,82.254,0,0,0-23.331-39.47A87.069,87.069,0,0,0,161.608,55.2a89.157,89.157,0,0,0-47.061,2.566,86.137,86.137,0,0,0-38.6,26.07,81.441,81.441,0,0,0-18.561,41.755,80.248,80.248,0,0,0,7.045,44.915,83.84,83.84,0,0,0,30.538,34.6,88.308,88.308,0,0,0,44.872,13.911l.868-24.694a62,62,0,0,1-31.5-9.767,58.857,58.857,0,0,1-21.442-24.294,56.342,56.342,0,0,1-4.946-31.535A57.179,57.179,0,0,1,95.848,99.416a60.472,60.472,0,0,1,27.1-18.3,62.6,62.6,0,0,1,33.041-1.8,61.131,61.131,0,0,1,29.072,15.241,57.759,57.759,0,0,1,16.38,27.712Z" fill="#3380ff"/>
    </g>
  </g>
</svg>
