<svg width="139" height="49" viewBox="0 0 139 49" fill="none" xmlns="http://www.w3.org/2000/svg">
<path d="M1.53906 34.9104L3.54801 34.7568C5.55697 34.6033 9.57487 34.2961 13.5928 35.3659C17.6107 36.4358 21.6286 38.8825 25.6465 40.6298C29.6644 42.377 34.9058 32.5588 38.9237 30.5C42.9416 28.4412 45.8719 46.2039 49.8898 47C53.9077 47.7961 57.7897 42.4913 61.8076 34.7878C65.8255 27.0843 69.8434 20.9197 73.8613 10.5469C77.8792 0.174207 81.8971 1.59337 85.915 11.3539C89.9329 21.1144 93.9508 23.2163 97.9687 23.2393C101.987 23.2623 106.684 32.9751 110.702 28.5C114.72 24.0249 118.058 5.36193 122.076 5.25352C126.094 5.14511 131.638 10 137.121 1" stroke="#F0A0A0" stroke-width="2" stroke-linecap="round"/>
</svg>
