<svg width="14" height="8" viewBox="0 0 14 8" fill="none" xmlns="http://www.w3.org/2000/svg">
<path d="M7.89027 7.63536L13.2673 1.77303C13.9019 1.08328 13.3862 3.93217e-07 12.4231 3.93217e-07H1.66899C1.45346 -0.000175869 1.24243 0.0589098 1.0612 0.170182C0.879965 0.281454 0.736199 0.440196 0.647117 0.627397C0.558035 0.814598 0.527413 1.02232 0.558919 1.2257C0.590426 1.42907 0.682725 1.61947 0.824762 1.7741L6.20181 7.63429C6.30704 7.74915 6.43682 7.84121 6.58243 7.90429C6.72804 7.96737 6.88612 8 7.04604 8C7.20596 8 7.36403 7.96737 7.50965 7.90429C7.65526 7.84121 7.78503 7.74915 7.89027 7.63429V7.63536Z" fill="black"/>
</svg>
