<svg width="22" height="16" viewBox="0 0 22 16" fill="none" xmlns="http://www.w3.org/2000/svg">
<path d="M20.2604 6.962C20.7344 7.582 20.7344 8.419 20.2604 9.038C18.7674 10.987 15.1854 15 11.0034 15C6.82143 15 3.23943 10.987 1.74643 9.038C1.51581 8.74113 1.39063 8.37592 1.39062 8C1.39063 7.62408 1.51581 7.25887 1.74643 6.962C3.23943 5.013 6.82143 1 11.0034 1C15.1854 1 18.7674 5.013 20.2604 6.962V6.962Z" stroke="#5E6E78" stroke-opacity="0.37" stroke-width="2" stroke-linecap="round" stroke-linejoin="round"/>
<path d="M11 11C12.6569 11 14 9.65685 14 8C14 6.34315 12.6569 5 11 5C9.34315 5 8 6.34315 8 8C8 9.65685 9.34315 11 11 11Z" stroke="#5E6E78" stroke-opacity="0.37" stroke-width="2" stroke-linecap="round" stroke-linejoin="round"/>
</svg>
