<svg width="38" height="28" viewBox="0 0 38 28" fill="none" xmlns="http://www.w3.org/2000/svg">
<path d="M14.4254 16.4245C13.9935 16.4245 13.5793 16.2596 13.2739 15.9662C12.9685 15.6727 12.7969 15.2747 12.7969 14.8597C12.7969 14.4447 12.9685 14.0467 13.2739 13.7532C13.5793 13.4598 13.9935 13.2949 14.4254 13.2949C14.8573 13.2949 15.2716 13.4598 15.577 13.7532C15.8824 14.0467 16.054 14.4447 16.054 14.8597C16.054 15.2747 15.8824 15.6727 15.577 15.9662C15.2716 16.2596 14.8573 16.4245 14.4254 16.4245ZM19.8539 16.4245C19.422 16.4245 19.0078 16.2596 18.7023 15.9662C18.3969 15.6727 18.2254 15.2747 18.2254 14.8597C18.2254 14.4447 18.3969 14.0467 18.7023 13.7532C19.0078 13.4598 19.422 13.2949 19.8539 13.2949C20.2858 13.2949 20.7 13.4598 21.0055 13.7532C21.3109 14.0467 21.4824 14.4447 21.4824 14.8597C21.4824 15.2747 21.3109 15.6727 21.0055 15.9662C20.7 16.2596 20.2858 16.4245 19.8539 16.4245ZM25.2824 16.4245C24.8505 16.4245 24.4362 16.2596 24.1308 15.9662C23.8254 15.6727 23.6538 15.2747 23.6538 14.8597C23.6538 14.4447 23.8254 14.0467 24.1308 13.7532C24.4362 13.4598 24.8505 13.2949 25.2824 13.2949C25.7143 13.2949 26.1285 13.4598 26.4339 13.7532C26.7393 14.0467 26.9109 14.4447 26.9109 14.8597C26.9109 15.2747 26.7393 15.6727 26.4339 15.9662C26.1285 16.2596 25.7143 16.4245 25.2824 16.4245Z" fill="#7F8A9B" fill-opacity="0.4"/>
<rect x="1.00156" y="0.927344" width="36.6137" height="26.8229" rx="5.85" stroke="#7F8A9B" stroke-opacity="0.3" stroke-width="0.3"/>
</svg>
