<svg width="5" height="20" viewBox="0 0 5 20" fill="none" xmlns="http://www.w3.org/2000/svg">
<path d="M4.53259 17.3743C4.53259 17.9754 4.29382 18.5518 3.8688 18.9768C3.44379 19.4019 2.86735 19.6406 2.26629 19.6406C1.66523 19.6406 1.08879 19.4019 0.663781 18.9768C0.238769 18.5518 -7.27897e-08 17.9754 -9.90628e-08 17.3743C-1.25336e-07 16.7733 0.238769 16.1968 0.663781 15.7718C1.08879 15.3468 1.66523 15.108 2.26629 15.108C2.86735 15.108 3.44379 15.3468 3.8688 15.7718C4.29382 16.1968 4.53259 16.7733 4.53259 17.3743ZM4.53259 9.82002C4.53259 10.4211 4.29382 10.9975 3.8688 11.4225C3.44379 11.8475 2.86735 12.0863 2.26629 12.0863C1.66523 12.0863 1.08879 11.8475 0.663781 11.4225C0.238769 10.9975 -4.02999e-07 10.4211 -4.29272e-07 9.82002C-4.55545e-07 9.21897 0.238769 8.64252 0.663781 8.21751C1.08879 7.7925 1.66523 7.55373 2.26629 7.55373C2.86735 7.55373 3.44379 7.7925 3.8688 8.21751C4.29382 8.64252 4.53259 9.21897 4.53259 9.82002ZM4.53258 2.26571C4.53258 2.86677 4.29382 3.44321 3.8688 3.86823C3.44379 4.29324 2.86735 4.53201 2.26629 4.53201C1.66523 4.53201 1.08879 4.29324 0.663781 3.86823C0.238768 3.44321 -7.33208e-07 2.86677 -7.59481e-07 2.26571C-7.85755e-07 1.66466 0.238768 1.08822 0.663781 0.663204C1.08879 0.238192 1.66523 -0.000577999 2.26629 -0.000578026C2.86735 -0.000578052 3.44379 0.238191 3.8688 0.663204C4.29382 1.08822 4.53258 1.66466 4.53258 2.26571Z" fill="#A2A7B4"/>
</svg>
